{
  "accessors": [
    {
      "bufferView": 2,
      "componentType": 5126,
      "count": 1731,
      "max": [
        1.0,
        0.849448025226593,
        0.32848501205444336
      ],
      "min": [
        -0.09832130372524261,
        -0.8288729786872864,
        -0.5543230175971985
      ],
      "type": "VEC3"
    },
    {
      "bufferView": 2,
      "byteOffset": 20772,
      "componentType": 5126,
      "count": 1731,
      "max": [
        0.9987578988075256,
        0.9996892213821411,
        1.0
      ],
      "min": [
        -0.9999982118606567,
        -0.9996892213821411,
        -0.9999915957450867
      ],
      "type": "VEC3"
    },
    {
      "bufferView": 3,
      "componentType": 5126,
      "count": 1731,
      "max": [
        0.9997420907020569,
        0.9999605417251587,
        1.0,
        1.0
      ],
      "min": [
        -0.9993289709091187,
        -0.9998912811279297,
        -0.9999999403953552,
        1.0
      ],
      "type": "VEC4"
    },
    {
      "bufferView": 1,
      "componentType": 5126,
      "count": 1731,
      "max": [
        0.9980040192604065,
        0.9994999766349792
      ],
      "min": [
        0.0005000000237487257,
        0.0005000000237487257
      ],
      "type": "VEC2"
    },
    {
      "bufferView": 0,
      "componentType": 5125,
      "count": 7884,
      "type": "SCALAR"
    },
    {
      "bufferView": 2,
      "byteOffset": 41544,
      "componentType": 5126,
      "count": 1153,
      "max": [
        0.17032499611377716,
        -0.4927709996700287,
        0.6089079976081848
      ],
      "min": [
        -0.5255209803581238,
        -0.8427820205688477,
        0.0356626994907856
      ],
      "type": "VEC3"
    },
    {
      "bufferView": 2,
      "byteOffset": 55380,
      "componentType": 5126,
      "count": 1153,
      "max": [
        0.9964816570281982,
        1.0,
        0.9997484683990479
      ],
      "min": [
        -0.9964780211448669,
        -0.995450496673584,
        -0.9995782375335693
      ],
      "type": "VEC3"
    },
    {
      "bufferView": 3,
      "byteOffset": 27696,
      "componentType": 5126,
      "count": 1153,
      "max": [
        0.9999661445617676,
        0.9982100129127502,
        1.0,
        1.0
      ],
      "min": [
        -0.9974220395088196,
        -0.9986079335212708,
        -0.9997139573097229,
        1.0
      ],
      "type": "VEC4"
    },
    {
      "bufferView": 1,
      "byteOffset": 13848,
      "componentType": 5126,
      "count": 1153,
      "max": [
        0.9994999766349792,
        0.9873539805412292
      ],
      "min": [
        0.0005000000237487257,
        0.0005000000237487257
      ],
      "type": "VEC2"
    },
    {
      "bufferView": 0,
      "byteOffset": 31536,
      "componentType": 5125,
      "count": 4725,
      "type": "SCALAR"
    },
    {
      "bufferView": 2,
      "byteOffset": 69216,
      "componentType": 5126,
      "count": 1753,
      "max": [
        -0.12500199675559998,
        0.2625490128993988,
        0.11550000309944153
      ],
      "min": [
        -1.0,
        -0.849448025226593,
        -0.6089079976081848
      ],
      "type": "VEC3"
    },
    {
      "bufferView": 2,
      "byteOffset": 90252,
      "componentType": 5126,
      "count": 1753,
      "max": [
        0.9998180270195007,
        0.9994452595710754,
        0.9997795224189758
      ],
      "min": [
        -0.9992313385009766,
        -0.9894648790359497,
        -0.9993590116500854
      ],
      "type": "VEC3"
    },
    {
      "bufferView": 3,
      "byteOffset": 46144,
      "componentType": 5126,
      "count": 1753,
      "max": [
        0.9982790946960449,
        0.9997577667236328,
        0.989433228969574,
        1.0
      ],
      "min": [
        -0.9981992840766907,
        -0.999209463596344,
        -0.9997850060462952,
        1.0
      ],
      "type": "VEC4"
    },
    {
      "bufferView": 1,
      "byteOffset": 23072,
      "componentType": 5126,
      "count": 1753,
      "max": [
        0.9993000030517578,
        0.9994999766349792
      ],
      "min": [
        0.0005000000237487257,
        0.0005000000237487257
      ],
      "type": "VEC2"
    },
    {
      "bufferView": 0,
      "byteOffset": 50436,
      "componentType": 5125,
      "count": 9414,
      "type": "SCALAR"
    }
  ],
  "asset": {
    "extras": {
      "author": "rubenve (https://sketchfab.com/rubenve)",
      "license": "CC-BY-4.0 (http://creativecommons.org/licenses/by/4.0/)",
      "source": "https://sketchfab.com/3d-models/stylized-cactus-d515ed6d19184b80830a6feba04863a8",
      "title": "Stylized Cactus"
    },
    "generator": "Sketchfab-12.68.0",
    "version": "2.0"
  },
  "bufferViews": [
    {
      "buffer": 0,
      "byteLength": 88092,
      "name": "floatBufferViews",
      "target": 34963
    },
    {
      "buffer": 0,
      "byteLength": 37096,
      "byteOffset": 88092,
      "byteStride": 8,
      "name": "floatBufferViews",
      "target": 34962
    },
    {
      "buffer": 0,
      "byteLength": 111288,
      "byteOffset": 125188,
      "byteStride": 12,
      "name": "floatBufferViews",
      "target": 34962
    },
    {
      "buffer": 0,
      "byteLength": 74192,
      "byteOffset": 236476,
      "byteStride": 16,
      "name": "floatBufferViews",
      "target": 34962
    }
  ],
  "buffers": [
    {
      "byteLength": 310668,
      "uri": "scene.bin"
    }
  ],
  "images": [
    {
      "uri": "textures/SmallCactus4_default_baseColor.jpeg"
    },
    {
      "uri": "textures/SmallCactus4_default_metallicRoughness.png"
    },
    {
      "uri": "textures/SmallCactus4_default_normal.png"
    },
    {
      "uri": "textures/Material__25_baseColor.jpeg"
    },
    {
      "uri": "textures/Material__25_metallicRoughness.png"
    },
    {
      "uri": "textures/Material__25_normal.png"
    },
    {
      "uri": "textures/DefaultMaterial_baseColor.jpeg"
    },
    {
      "uri": "textures/DefaultMaterial_metallicRoughness.png"
    },
    {
      "uri": "textures/DefaultMaterial_normal.png"
    }
  ],
  "materials": [
    {
      "doubleSided": true,
      "name": "SmallCactus4_default",
      "normalTexture": {
        "index": 2
      },
      "occlusionTexture": {
        "index": 1
      },
      "pbrMetallicRoughness": {
        "baseColorTexture": {
          "index": 0
        },
        "metallicRoughnessTexture": {
          "index": 1
        }
      }
    },
    {
      "doubleSided": true,
      "name": "Material__25",
      "normalTexture": {
        "index": 5
      },
      "occlusionTexture": {
        "index": 4
      },
      "pbrMetallicRoughness": {
        "baseColorTexture": {
          "index": 3
        },
        "metallicRoughnessTexture": {
          "index": 4
        }
      }
    },
    {
      "doubleSided": true,
      "name": "DefaultMaterial",
      "normalTexture": {
        "index": 8
      },
      "occlusionTexture": {
        "index": 7
      },
      "pbrMetallicRoughness": {
        "baseColorTexture": {
          "index": 6
        },
        "metallicRoughnessTexture": {
          "index": 7
        }
      }
    }
  ],
  "meshes": [
    {
      "name": "defaultMaterial",
      "primitives": [
        {
          "attributes": {
            "NORMAL": 1,
            "POSITION": 0,
            "TANGENT": 2,
            "TEXCOORD_0": 3
          },
          "indices": 4,
          "material": 2,
          "mode": 4
        }
      ]
    },
    {
      "name": "defaultMaterial",
      "primitives": [
        {
          "attributes": {
            "NORMAL": 6,
            "POSITION": 5,
            "TANGENT": 7,
            "TEXCOORD_0": 8
          },
          "indices": 9,
          "material": 1,
          "mode": 4
        }
      ]
    },
    {
      "name": "defaultMaterial",
      "primitives": [
        {
          "attributes": {
            "NORMAL": 11,
            "POSITION": 10,
            "TANGENT": 12,
            "TEXCOORD_0": 13
          },
          "indices": 14,
          "material": 0,
          "mode": 4
        }
      ]
    }
  ],
  "nodes": [
    {
      "children": [
        1
      ],
      "matrix": [
        1.0,
        0.0,
        0.0,
        0.0,
        0.0,
        2.220446049250313e-16,
        -1.0,
        0.0,
        0.0,
        1.0,
        2.220446049250313e-16,
        0.0,
        0.0,
        0.0,
        0.0,
        1.0
      ],
      "name": "Sketchfab_model"
    },
    {
      "children": [
        2,
        4,
        6
      ],
      "matrix": [
        1.0,
        0.0,
        0.0,
        0.0,
        0.0,
        -4.371139006309477e-08,
        0.999999999999999,
        0.0,
        0.0,
        -0.999999999999999,
        -4.371139006309477e-08,
        0.0,
        0.0,
        0.0,
        0.0,
        1.0
      ],
      "name": "Collada visual scene group"
    },
    {
      "children": [
        3
      ],
      "name": "Sphere001"
    },
    {
      "mesh": 0,
      "name": "defaultMaterial"
    },
    {
      "children": [
        5
      ],
      "name": "Sphere002"
    },
    {
      "mesh": 1,
      "name": "defaultMaterial"
    },
    {
      "children": [
        7
      ],
      "name": "Group32591"
    },
    {
      "mesh": 2,
      "name": "defaultMaterial"
    }
  ],
  "samplers": [
    {
      "magFilter": 9729,
      "minFilter": 9987,
      "wrapS": 10497,
      "wrapT": 10497
    }
  ],
  "scene": 0,
  "scenes": [
    {
      "name": "Sketchfab_Scene",
      "nodes": [
        0
      ]
    }
  ],
  "textures": [
    {
      "sampler": 0,
      "source": 0
    },
    {
      "sampler": 0,
      "source": 1
    },
    {
      "sampler": 0,
      "source": 2
    },
    {
      "sampler": 0,
      "source": 3
    },
    {
      "sampler": 0,
      "source": 4
    },
    {
      "sampler": 0,
      "source": 5
    },
    {
      "sampler": 0,
      "source": 6
    },
    {
      "sampler": 0,
      "source": 7
    },
    {
      "sampler": 0,
      "source": 8
    }
  ]
}
